<svg width="34" height="34" viewBox="0 0 34 34" fill="none" xmlns="http://www.w3.org/2000/svg">
<path d="M8.5 14.875H25.5V5.3125C25.5 5.03071 25.3881 4.76046 25.1888 4.5612C24.9895 4.36194 24.7193 4.25 24.4375 4.25H9.5625C9.28071 4.25 9.01046 4.36194 8.8112 4.5612C8.61194 4.76046 8.5 5.03071 8.5 5.3125V14.875ZM8.5 17V28.6875C8.5 28.9693 8.61194 29.2395 8.8112 29.4388C9.01046 29.6381 9.28071 29.75 9.5625 29.75H24.4375C24.7193 29.75 24.9895 29.6381 25.1888 29.4388C25.3881 29.2395 25.5 28.9693 25.5 28.6875V17H8.5ZM9.5625 2.125H24.4375C25.2829 2.125 26.0936 2.46083 26.6914 3.0586C27.2892 3.65637 27.625 4.46712 27.625 5.3125V28.6875C27.625 29.5329 27.2892 30.3436 26.6914 30.9414C26.0936 31.5392 25.2829 31.875 24.4375 31.875H9.5625C8.71712 31.875 7.90637 31.5392 7.3086 30.9414C6.71083 30.3436 6.375 29.5329 6.375 28.6875V5.3125C6.375 4.46712 6.71083 3.65637 7.3086 3.0586C7.90637 2.46083 8.71712 2.125 9.5625 2.125ZM10.625 9.5625H12.75V12.75H10.625V9.5625ZM10.625 19.125H12.75V22.3125H10.625V19.125Z" fill="currentColor"/>
</svg>
