<svg width="36" height="36" viewBox="0 0 36 36" fill="none" xmlns="http://www.w3.org/2000/svg">
<path d="M25.6143 15.8025C25.9974 16.1858 26.4522 16.4898 26.9528 16.6972C27.4534 16.9046 27.99 17.0114 28.5318 17.0114C29.0737 17.0114 29.6103 16.9046 30.1109 16.6972C30.6114 16.4898 31.0663 16.1858 31.4493 15.8025C31.6398 15.6105 31.9923 15.6885 32.0388 15.9555C32.5541 18.8623 32.1288 21.8577 30.8248 24.5062C29.5208 27.1547 27.4061 29.3182 24.788 30.6823C22.1699 32.0464 19.185 32.5398 16.2673 32.091C13.3495 31.6422 10.6509 30.2744 8.56384 28.1865C6.47598 26.0995 5.10821 23.4009 4.65937 20.4831C4.21053 17.5653 4.70401 14.5804 6.06808 11.9624C7.43215 9.34432 9.5957 7.22956 12.2442 5.92556C14.8927 4.62155 17.888 4.19627 20.7948 4.71153C21.0618 4.75803 21.1398 5.11053 20.9478 5.30253C20.3357 5.91468 19.9316 6.70391 19.7929 7.55844C19.6542 8.41297 19.7878 9.28949 20.1749 10.0638C20.562 10.8382 21.1829 11.4711 21.9497 11.873C22.7165 12.2749 23.5903 12.4253 24.4473 12.303C24.3569 12.9369 24.4153 13.5831 24.6178 14.1905C24.8204 14.7979 25.1616 15.3498 25.6143 15.8025Z" stroke="currentColor" stroke-width="2.5" stroke-linecap="round" stroke-linejoin="round"/>
<path d="M12.75 25.1255C13.7855 25.1255 14.625 24.286 14.625 23.2505C14.625 22.215 13.7855 21.3755 12.75 21.3755C11.7145 21.3755 10.875 22.215 10.875 23.2505C10.875 24.286 11.7145 25.1255 12.75 25.1255Z" fill="currentColor"/>
<path d="M11.25 16.1255C12.2855 16.1255 13.125 15.286 13.125 14.2505C13.125 13.215 12.2855 12.3755 11.25 12.3755C10.2145 12.3755 9.375 13.215 9.375 14.2505C9.375 15.286 10.2145 16.1255 11.25 16.1255Z" fill="currentColor"/>
<path d="M18.75 20.6255C19.7855 20.6255 20.625 19.786 20.625 18.7505C20.625 17.715 19.7855 16.8755 18.75 16.8755C17.7145 16.8755 16.875 17.715 16.875 18.7505C16.875 19.786 17.7145 20.6255 18.75 20.6255Z" fill="currentColor"/>
<path d="M23.25 26.6255C24.2855 26.6255 25.125 25.786 25.125 24.7505C25.125 23.715 24.2855 22.8755 23.25 22.8755C22.2145 22.8755 21.375 23.715 21.375 24.7505C21.375 25.786 22.2145 26.6255 23.25 26.6255Z" fill="currentColor"/>
</svg>
