<svg width="40" height="41" viewBox="0 0 40 41" fill="none" xmlns="http://www.w3.org/2000/svg">
<path d="M20 6.83301C19.4725 7.22109 19.0451 7.73496 18.7547 8.33023C18.4644 8.92551 18.3197 9.58429 18.3333 10.2497C18.3197 10.9151 18.4644 11.5738 18.7547 12.1691C19.0451 12.7644 19.4725 13.2783 20 13.6663M26.6667 6.83301C26.1392 7.22109 25.7118 7.73496 25.4214 8.33023C25.131 8.92551 24.9864 9.58429 25 10.2497C24.9864 10.9151 25.131 11.5738 25.4214 12.1691C25.7118 12.7644 26.1392 13.2783 26.6667 13.6663M13.3333 6.83301C12.8058 7.22109 12.3785 7.73496 12.0881 8.33023C11.7977 8.92551 11.6531 9.58429 11.6667 10.2497C11.6531 10.9151 11.7977 11.5738 12.0881 12.1691C12.3785 12.7644 12.8058 13.2783 13.3333 13.6663M6.66667 18.7913H33.3333C33.7754 18.7913 34.1993 18.9713 34.5118 19.2917C34.8244 19.6121 35 20.0466 35 20.4997V21.3538C35 23.9163 30.805 30.8744 28.3333 32.458V34.1663C28.3333 34.6194 28.1577 35.0539 27.8452 35.3743C27.5326 35.6947 27.1087 35.8747 26.6667 35.8747H13.3333C12.8913 35.8747 12.4674 35.6947 12.1548 35.3743C11.8423 35.0539 11.6667 34.6194 11.6667 34.1663V32.458C8.855 30.6574 5 23.9163 5 21.3538V20.4997C5 20.0466 5.17559 19.6121 5.48816 19.2917C5.80072 18.9713 6.22464 18.7913 6.66667 18.7913Z" stroke="currntColor" stroke-width="2.29" stroke-linecap="round" stroke-linejoin="round"/>
</svg>
