<svg width="10" height="10" viewBox="0 0 10 10" fill="none" xmlns="http://www.w3.org/2000/svg">
<path d="M5 10C3.83333 10 2.80093 9.64592 1.90278 8.93777C1.00463 8.22963 0.421296 7.32444 0.152778 6.22222C0.115741 6.08333 0.143518 5.95611 0.236111 5.84055C0.328704 5.725 0.453704 5.65778 0.611111 5.63889C0.759259 5.62037 0.893518 5.64815 1.01389 5.72222C1.13426 5.79629 1.21759 5.90741 1.26389 6.05555C1.48611 6.88889 1.94444 7.56944 2.63889 8.09722C3.33333 8.625 4.12037 8.88889 5 8.88889C6.08333 8.88889 7.00241 8.51166 7.75722 7.75722C8.51204 7.00278 8.88926 6.0837 8.88889 5C8.88852 3.9163 8.5113 2.99741 7.75722 2.24333C7.00315 1.48926 6.08407 1.11185 5 1.11111C4.36111 1.11111 3.76389 1.25926 3.20833 1.55556C2.65278 1.85185 2.18519 2.25926 1.80556 2.77778H2.77778C2.93519 2.77778 3.06722 2.83111 3.17389 2.93778C3.28056 3.04444 3.3337 3.1763 3.33333 3.33333C3.33296 3.49037 3.27963 3.62241 3.17333 3.72944C3.06704 3.83648 2.93519 3.88963 2.77778 3.88889H0.555556C0.398148 3.88889 0.266296 3.83555 0.16 3.72889C0.0537038 3.62222 0.00037037 3.49037 0 3.33333V1.11111C0 0.953703 0.0533334 0.821852 0.16 0.715555C0.266667 0.609259 0.398519 0.555926 0.555556 0.555555C0.712593 0.555185 0.844629 0.608518 0.951667 0.715555C1.0587 0.822592 1.11185 0.954444 1.11111 1.11111V1.86111C1.58333 1.26852 2.15981 0.810185 2.84056 0.486111C3.5213 0.162037 4.24111 0 5 0C5.69444 0 6.345 0.132037 6.95167 0.396111C7.55833 0.660185 8.08611 1.01648 8.535 1.465C8.98389 1.91352 9.34037 2.4413 9.60444 3.04833C9.86852 3.65537 10.0004 4.30592 10 5C9.99963 5.69407 9.86778 6.34463 9.60444 6.95166C9.34111 7.5587 8.98463 8.08648 8.535 8.535C8.08537 8.98352 7.55759 9.34 6.95167 9.60444C6.34574 9.86889 5.69518 10.0007 5 10ZM5.55556 4.77778L6.94444 6.16667C7.0463 6.26852 7.09722 6.39815 7.09722 6.55555C7.09722 6.71296 7.0463 6.84259 6.94444 6.94444C6.84259 7.04629 6.71296 7.09722 6.55556 7.09722C6.39815 7.09722 6.26852 7.04629 6.16667 6.94444L4.61111 5.38889C4.55556 5.33333 4.51389 5.27092 4.48611 5.20167C4.45833 5.13241 4.44444 5.06055 4.44444 4.98611V2.77778C4.44444 2.62037 4.49778 2.48852 4.60444 2.38222C4.71111 2.27593 4.84296 2.22259 5 2.22222C5.15704 2.22185 5.28907 2.27518 5.39611 2.38222C5.50315 2.48926 5.5563 2.62111 5.55556 2.77778V4.77778Z" fill="currentColor"/>
</svg>