<svg width="28" height="28" viewBox="0 0 28 28" fill="none" xmlns="http://www.w3.org/2000/svg">
<path d="M2.33325 14.0003H25.6666M23.3333 14.0003V23.3336C23.3333 23.9525 23.0874 24.546 22.6498 24.9835C22.2123 25.4211 21.6188 25.667 20.9999 25.667H6.99992C6.38108 25.667 5.78759 25.4211 5.35 24.9835C4.91242 24.546 4.66659 23.9525 4.66659 23.3336V14.0003M4.66659 9.33363L23.3333 4.66696M10.3366 7.91029L9.81159 5.79863C9.73637 5.5014 9.72046 5.19226 9.76478 4.88888C9.8091 4.5855 9.91278 4.29383 10.0699 4.03054C10.227 3.76725 10.4344 3.53751 10.6804 3.35444C10.9263 3.17137 11.206 3.03857 11.5033 2.96363L13.7666 2.40363C14.0646 2.32859 14.3745 2.31317 14.6785 2.35824C14.9825 2.4033 15.2746 2.50798 15.538 2.66625C15.8014 2.82452 16.031 3.03327 16.2135 3.28051C16.396 3.52775 16.5279 3.80861 16.6016 4.10696L17.1266 6.20696" stroke="currentColor" stroke-width="2" stroke-linecap="round" stroke-linejoin="round"/>
</svg>