<svg width="15" height="15" viewBox="0 0 15 15" fill="none" xmlns="http://www.w3.org/2000/svg">
<path d="M12.1051 3.26655C11.9019 3.26655 11.707 3.34727 11.5634 3.49095C11.4197 3.63462 11.339 3.82949 11.339 4.03268V6.8459H10.8303V2.50042C10.8303 2.29723 10.7495 2.10237 10.6059 1.95869C10.4622 1.81501 10.2673 1.7343 10.0641 1.7343C9.86094 1.7343 9.66607 1.81501 9.5224 1.95869C9.37872 2.10237 9.298 2.29723 9.298 2.50042V6.8459H8.78317V1.99171C8.78317 1.78852 8.70245 1.59366 8.55877 1.44998C8.41509 1.3063 8.22023 1.22559 8.01704 1.22559C7.81385 1.22559 7.61898 1.3063 7.4753 1.44998C7.33163 1.59366 7.25091 1.78852 7.25091 1.99171V6.8459H6.7422V3.26655C6.7422 3.06336 6.66148 2.86849 6.51781 2.72482C6.37413 2.58114 6.17926 2.50042 5.97607 2.50042C5.77288 2.50042 5.57801 2.58114 5.43434 2.72482C5.29066 2.86849 5.20994 3.06336 5.20994 3.26655V9.35268L3.00962 8.12687C2.91681 8.07179 2.81109 8.04219 2.70317 8.04106C2.55419 8.04128 2.41039 8.09575 2.29865 8.19429L1.63672 8.80719L5.6451 12.8707C5.83386 13.0649 6.05969 13.2193 6.30922 13.3246C6.55874 13.4298 6.82686 13.4839 7.09768 13.4836H10.8303C11.3716 13.4836 11.8907 13.2686 12.2734 12.8859C12.6562 12.5031 12.8712 11.984 12.8712 11.4427V4.03268C12.8712 3.82949 12.7905 3.63462 12.6468 3.49095C12.5032 3.34727 12.3083 3.26655 12.1051 3.26655ZM6.7422 9.19332C6.62098 9.19332 6.50248 9.15738 6.40169 9.09003C6.3009 9.02268 6.22234 8.92696 6.17595 8.81497C6.12956 8.70297 6.11742 8.57974 6.14107 8.46085C6.16472 8.34196 6.2231 8.23275 6.30881 8.14703C6.39453 8.06132 6.50374 8.00294 6.62263 7.97929C6.74152 7.95564 6.86475 7.96778 6.97675 8.01417C7.08874 8.06056 7.18446 8.13912 7.25181 8.23991C7.31916 8.3407 7.3551 8.4592 7.3551 8.58042C7.3551 8.74297 7.29053 8.89887 7.17559 9.01381C7.06065 9.12875 6.90475 9.19332 6.7422 9.19332ZM7.968 11.032C7.84678 11.032 7.72829 10.9961 7.62749 10.9287C7.5267 10.8614 7.44815 10.7657 7.40176 10.6537C7.35537 10.5417 7.34323 10.4184 7.36688 10.2996C7.39053 10.1807 7.4489 10.0715 7.53462 9.98574C7.62033 9.90002 7.72954 9.84165 7.84843 9.818C7.96732 9.79435 8.09056 9.80649 8.20255 9.85288C8.31455 9.89927 8.41027 9.97783 8.47761 10.0786C8.54496 10.1794 8.58091 10.2979 8.58091 10.4191C8.58091 10.5817 8.51633 10.7376 8.40139 10.8525C8.28645 10.9675 8.13056 11.032 7.968 11.032ZM11.0325 9.80622C10.9113 9.80622 10.7928 9.77028 10.692 9.70293C10.5912 9.63558 10.5127 9.53986 10.4663 9.42787C10.4199 9.31588 10.4077 9.19264 10.4314 9.07375C10.455 8.95486 10.5134 8.84565 10.5991 8.75993C10.6848 8.67422 10.7941 8.61584 10.9129 8.5922C11.0318 8.56855 11.1551 8.58068 11.2671 8.62707C11.3791 8.67346 11.4748 8.75202 11.5421 8.85281C11.6095 8.9536 11.6454 9.0721 11.6454 9.19332C11.6454 9.35587 11.5808 9.51177 11.4659 9.62671C11.351 9.74165 11.1951 9.80622 11.0325 9.80622ZM10.4196 11.6449C10.2984 11.6449 10.1799 11.609 10.0791 11.5416C9.97831 11.4743 9.89976 11.3786 9.85337 11.2666C9.80698 11.1546 9.79484 11.0313 9.81849 10.9125C9.84214 10.7936 9.90051 10.6844 9.98623 10.5986C10.0719 10.5129 10.1812 10.4546 10.3 10.4309C10.4189 10.4073 10.5422 10.4194 10.6542 10.4658C10.7662 10.5122 10.8619 10.5907 10.9292 10.6915C10.9966 10.7923 11.0325 10.9108 11.0325 11.032C11.0325 11.1946 10.9679 11.3505 10.853 11.4654C10.7381 11.5804 10.5822 11.6449 10.4196 11.6449ZM9.19381 9.19332C9.07259 9.19332 8.95409 9.15738 8.8533 9.09003C8.75251 9.02268 8.67395 8.92696 8.62756 8.81497C8.58117 8.70297 8.56904 8.57974 8.59268 8.46085C8.61633 8.34196 8.67471 8.23275 8.76042 8.14703C8.84614 8.06132 8.95535 8.00294 9.07424 7.97929C9.19313 7.95564 9.31637 7.96778 9.42836 8.01417C9.54035 8.06056 9.63607 8.13912 9.70342 8.23991C9.77077 8.3407 9.80671 8.4592 9.80671 8.58042C9.80671 8.74297 9.74214 8.89887 9.6272 9.01381C9.51226 9.12875 9.35636 9.19332 9.19381 9.19332Z" fill="#87DF00"/>
</svg>