<svg width="15" height="15" viewBox="0 0 15 15" fill="none" xmlns="http://www.w3.org/2000/svg">
<path d="M1.72114 0.853516L12.9894 12.1217L12.1221 12.9884L9.82616 10.6918L7.35494 13.168L2.15875 7.96319C1.55456 7.2856 1.22236 6.40848 1.2261 5.50065C1.22983 4.59282 1.56924 3.71846 2.17898 3.04587L0.854492 1.72077L1.72114 0.853516ZM12.4071 2.91532C13.0711 3.57921 13.456 4.47194 13.4829 5.4105C13.5098 6.34906 13.1766 7.26237 12.5517 7.96319L11.5496 8.9659L4.44978 1.86664C4.97094 1.80188 5.49993 1.84949 6.00115 2.00627C6.50237 2.16305 6.9642 2.42537 7.35555 2.77558C8.05597 2.14898 8.9697 1.81432 9.90913 1.84031C10.8486 1.86629 11.7424 2.25096 12.4071 2.91532Z" fill="#87DF00"/>
</svg>