<svg width="15" height="15" viewBox="0 0 15 15" fill="none" xmlns="http://www.w3.org/2000/svg">
<path fill-rule="evenodd" clip-rule="evenodd" d="M2.78057 3.54178C3.35525 2.96727 4.13458 2.64453 4.94718 2.64453C5.75978 2.64453 6.53911 2.96727 7.11379 3.54178C7.22616 3.65374 7.3708 3.79307 7.54773 3.95978C7.72424 3.79307 7.86868 3.65374 7.98105 3.54178C8.55332 2.97219 9.32726 2.65147 10.1347 2.6493C10.9421 2.64714 11.7177 2.96372 12.2931 3.53023C12.8684 4.09675 13.1969 4.86742 13.2071 5.67477C13.2174 6.48213 12.9087 7.26092 12.348 7.84191L7.98044 12.2095C7.8655 12.3244 7.70963 12.3889 7.54711 12.3889C7.38459 12.3889 7.22873 12.3244 7.11379 12.2095L2.74625 7.84252C2.18608 7.2648 1.87562 6.48992 1.88193 5.68524C1.88824 4.88056 2.21141 4.11065 2.78057 3.54178Z" fill="#87DF00"/>
</svg>