<svg width="25" height="25" viewBox="0 0 25 25" fill="none" xmlns="http://www.w3.org/2000/svg">
<path d="M20.7156 13.0532L22.1281 14.311C22.3889 14.5287 22.5632 14.8325 22.6194 15.1676C22.6756 15.5027 22.6099 15.8467 22.4343 16.1376L20.7312 19.047C20.5991 19.2697 20.4104 19.4535 20.1844 19.5798C19.9556 19.7063 19.6989 19.7735 19.4375 19.7751C19.2753 19.7761 19.114 19.7518 18.9594 19.7032L17.1515 19.1063C16.8349 19.3095 16.5057 19.4912 16.164 19.6516L15.7844 21.4845C15.7141 21.8216 15.5264 22.1228 15.2547 22.3345C14.9795 22.5499 14.6384 22.6636 14.289 22.6563H10.7625C10.4131 22.6636 10.072 22.5499 9.79685 22.3345C9.52572 22.1226 9.33858 21.8214 9.26873 21.4845L8.88748 19.6516C8.55029 19.4891 8.22314 19.3065 7.90779 19.1048L6.09373 19.7032C5.93905 19.7518 5.77774 19.7761 5.6156 19.7751C5.35476 19.7732 5.09853 19.7061 4.87029 19.5798C4.64441 19.4539 4.45576 19.2707 4.32341 19.0485L2.55935 16.1376C2.37596 15.8441 2.30588 15.4938 2.36226 15.1524C2.41864 14.811 2.5976 14.5018 2.8656 14.2829L4.27654 12.5001V11.947L2.86404 10.6891C2.6032 10.4715 2.42892 10.1676 2.37274 9.83256C2.31656 9.49751 2.38221 9.15342 2.55779 8.86258L4.32185 5.95321C4.45398 5.7305 4.64265 5.54668 4.86873 5.42039C5.09697 5.2941 5.35319 5.22695 5.61404 5.22508C5.77472 5.21494 5.93599 5.2297 6.09216 5.26883L7.87029 5.89383C8.188 5.69071 8.51716 5.50893 8.85779 5.34852L9.23904 3.51571C9.30889 3.17878 9.49604 2.87757 9.76716 2.66571C10.0423 2.45031 10.3834 2.3366 10.7328 2.34383H14.2297C14.579 2.3366 14.9201 2.45031 15.1953 2.66571C15.4687 2.87977 15.6562 3.18133 15.7234 3.51571L16.1047 5.34852C16.4432 5.50998 16.7698 5.69227 17.0844 5.89539L18.9 5.29852C19.1015 5.23297 19.3144 5.20995 19.5253 5.23093C19.7361 5.25191 19.9403 5.31642 20.125 5.42039C20.3515 5.54852 20.539 5.73289 20.6718 5.95164L22.4343 8.86258C22.6202 9.15355 22.6939 9.50221 22.6415 9.84349C22.5892 10.1848 22.4145 10.4954 22.15 10.7173L20.7156 11.9391V13.0532Z" stroke="#9B9B9B"/>
<path d="M16.4062 12.5C16.4062 13.536 15.9947 14.5296 15.2621 15.2621C14.5296 15.9947 13.536 16.4062 12.5 16.4062C11.464 16.4062 10.4704 15.9947 9.73786 15.2621C9.0053 14.5296 8.59375 13.536 8.59375 12.5C8.59375 11.464 9.0053 10.4704 9.73786 9.73786C10.4704 9.0053 11.464 8.59375 12.5 8.59375C13.536 8.59375 14.5296 9.0053 15.2621 9.73786C15.9947 10.4704 16.4062 11.464 16.4062 12.5Z" stroke="#9B9B9B"/>
</svg>
