<svg width="29" height="29" viewBox="0 0 29 29" fill="none" xmlns="http://www.w3.org/2000/svg">
<path d="M12.7479 3.05978C13.2382 2.64655 13.8588 2.41992 14.5 2.41992C15.1412 2.41992 15.7618 2.64655 16.2521 3.05978L24.4083 9.93761C25.021 10.4548 25.375 11.2148 25.375 12.0159V23.2655C25.375 23.8263 25.1522 24.3642 24.7557 24.7608C24.3591 25.1573 23.8212 25.3801 23.2604 25.3801H19.0313C18.4704 25.3801 17.9326 25.1573 17.536 24.7608C17.1395 24.3642 16.9167 23.8263 16.9167 23.2655V17.2154C16.9167 17.1353 16.8848 17.0584 16.8282 17.0018C16.7715 16.9451 16.6947 16.9133 16.6146 16.9133H12.3854C12.3053 16.9133 12.2285 16.9451 12.1718 17.0018C12.1152 17.0584 12.0833 17.1353 12.0833 17.2154V23.2655C12.0833 23.8263 11.8605 24.3642 11.464 24.7608C11.0674 25.1573 10.5296 25.3801 9.96875 25.3801H5.73958C5.46189 25.3801 5.18692 25.3254 4.93037 25.2191C4.67381 25.1129 4.4407 24.9571 4.24435 24.7608C4.04799 24.5644 3.89223 24.3313 3.78596 24.0747C3.6797 23.8182 3.625 23.5432 3.625 23.2655V12.0159C3.625 11.2148 3.97904 10.4548 4.59167 9.93761L12.7479 3.05978ZM15.0836 4.44573C14.9203 4.30821 14.7136 4.23279 14.5 4.23279C14.2864 4.23279 14.0798 4.30821 13.9164 4.44573L5.76013 11.3224C5.65919 11.4073 5.57803 11.5133 5.5223 11.6329C5.46658 11.7525 5.43764 11.8828 5.4375 12.0147V23.2643C5.4375 23.4311 5.57283 23.5664 5.73958 23.5664H9.96875C10.0489 23.5664 10.1257 23.5346 10.1824 23.4779C10.239 23.4213 10.2708 23.3444 10.2708 23.2643V17.2142C10.2708 16.0457 11.2182 15.0996 12.3854 15.0996H16.6146C17.7818 15.0996 18.7292 16.0457 18.7292 17.2142V23.2643C18.7292 23.4311 18.8645 23.5664 19.0313 23.5664H23.2604C23.3405 23.5664 23.4174 23.5346 23.474 23.4779C23.5307 23.4213 23.5625 23.3444 23.5625 23.2643V12.0147C23.5624 11.8828 23.5334 11.7525 23.4777 11.6329C23.422 11.5133 23.3408 11.4073 23.2399 11.3224L15.0836 4.44573Z" fill="currentColor"/>
</svg>