<svg width="28" height="28" viewBox="0 0 28 28" fill="none" xmlns="http://www.w3.org/2000/svg">
<path d="M13.9999 2.33301C7.55642 2.33301 2.33325 7.55617 2.33325 13.9997C2.33325 20.4432 7.55642 25.6663 13.9999 25.6663C20.4434 25.6663 25.6666 20.4432 25.6666 13.9997C25.6666 7.55617 20.4434 2.33301 13.9999 2.33301Z" stroke="currentColor" stroke-width="1.9375" stroke-linecap="round" stroke-linejoin="round"/>
<path d="M4.98267 21.4037C4.98267 21.4037 7.58317 18.0833 13.9998 18.0833C20.4165 18.0833 23.0182 21.4037 23.0182 21.4037M13.9998 14C14.9281 14 15.8183 13.6313 16.4747 12.9749C17.1311 12.3185 17.4998 11.4283 17.4998 10.5C17.4998 9.57174 17.1311 8.6815 16.4747 8.02513C15.8183 7.36875 14.9281 7 13.9998 7C13.0716 7 12.1813 7.36875 11.525 8.02513C10.8686 8.6815 10.4998 9.57174 10.4998 10.5C10.4998 11.4283 10.8686 12.3185 11.525 12.9749C12.1813 13.6313 13.0716 14 13.9998 14Z" stroke="currentColor" stroke-width="1.9375" stroke-linecap="round" stroke-linejoin="round"/>
</svg>