<svg width="96" height="96" viewBox="0 0 96 96" fill="none" xmlns="http://www.w3.org/2000/svg">
<path d="M46 32C56 32 64 40 64 50C64 60 56 68 46 68C36 68 28 60 28 50C28 40 36 32 46 32ZM46 36C42.287 36 38.726 37.475 36.1005 40.1005C33.475 42.726 32 46.287 32 50C32 53.713 33.475 57.274 36.1005 59.8995C38.726 62.525 42.287 64 46 64C49.713 64 53.274 62.525 55.8995 59.8995C58.525 57.274 60 53.713 60 50C60 46.287 58.525 42.726 55.8995 40.1005C53.274 37.475 49.713 36 46 36ZM20 20H28L36 12H56L64 20H72C75.1826 20 78.2348 21.2643 80.4853 23.5147C82.7357 25.7652 84 28.8174 84 32V68C84 71.1826 82.7357 74.2349 80.4853 76.4853C78.2348 78.7357 75.1826 80 72 80H20C16.8174 80 13.7652 78.7357 11.5147 76.4853C9.26428 74.2349 8 71.1826 8 68V32C8 28.8174 9.26428 25.7652 11.5147 23.5147C13.7652 21.2643 16.8174 20 20 20ZM37.64 16L29.64 24H20C17.8783 24 15.8434 24.8429 14.3431 26.3431C12.8429 27.8434 12 29.8783 12 32V68C12 70.1217 12.8429 72.1566 14.3431 73.6569C15.8434 75.1572 17.8783 76 20 76H72C74.1217 76 76.1566 75.1572 77.6568 73.6569C79.1571 72.1566 80 70.1217 80 68V32C80 29.8783 79.1571 27.8434 77.6568 26.3431C76.1566 24.8429 74.1217 24 72 24H62.36L54.36 16H37.64Z" fill="black"/>
</svg>
