<svg width="25" height="25" viewBox="0 0 25 25" fill="none" xmlns="http://www.w3.org/2000/svg">
<path d="M4.16658 21.8752C4.24962 21.8852 4.33355 21.8852 4.41658 21.8752L8.58325 20.8335C8.76809 20.7896 8.93739 20.6959 9.07283 20.5627L21.8749 7.71892C22.2629 7.32859 22.4807 6.80056 22.4807 6.25017C22.4807 5.69979 22.2629 5.17176 21.8749 4.78142L20.2291 3.12517C20.0356 2.93147 19.8058 2.77781 19.5529 2.67297C19.3 2.56812 19.0289 2.51416 18.7551 2.51416C18.4813 2.51416 18.2102 2.56812 17.9573 2.67297C17.7044 2.77781 17.4747 2.93147 17.2812 3.12517L4.47908 15.9273C4.34449 16.0633 4.24757 16.232 4.19783 16.4168L3.15617 20.5835C3.11873 20.7183 3.10882 20.8592 3.12703 20.9979C3.14524 21.1366 3.1912 21.2702 3.26217 21.3908C3.33314 21.5113 3.42766 21.6163 3.54009 21.6996C3.65252 21.7828 3.78057 21.8425 3.91658 21.8752C3.99962 21.8852 4.08355 21.8852 4.16658 21.8752ZM18.7499 4.59392L20.4062 6.25017L18.7499 7.90642L17.1041 6.25017L18.7499 4.59392ZM6.15617 17.1981L15.6249 7.71892L17.2812 9.37517L7.802 18.8543L5.60408 19.396L6.15617 17.1981Z" fill="white"/>
</svg>
