<svg width="120" height="100" viewBox="0 0 120 100" fill="none" xmlns="http://www.w3.org/2000/svg">
<path d="M23 48.2999V6.8999L27.6 9.1999L32.2 6.8999L36.7914 9.1999L41.4446 6.8999L46 9.1999L50.5698 6.8999L55.1597 9.1999L59.8 6.8999L64.4014 9.1999L69 6.8999V39.0999" stroke="#606060" stroke-width="2.19702" stroke-linejoin="round"/>
<path d="M69.0002 39.0996V55.1996C69.0002 58.2496 67.7886 61.1747 65.6319 63.3313C63.4752 65.488 60.5502 66.6996 57.5002 66.6996M57.5002 66.6996C54.4502 66.6996 51.5251 65.488 49.3685 63.3313C47.2118 61.1747 46.0002 58.2496 46.0002 55.1996V48.2996H6.90019C6.5974 48.2969 6.29711 48.3546 6.01685 48.4692C5.73659 48.5839 5.48197 48.7532 5.26786 48.9673C5.05375 49.1814 4.88443 49.436 4.7698 49.7163C4.65516 49.9965 4.5975 50.2968 4.60019 50.5996C4.60019 59.7996 5.56906 66.6996 16.1002 66.6996H57.5002Z" stroke="#606060" stroke-width="2.19702" stroke-linejoin="round"/>
<path d="M32.1997 20.6997H59.7997M41.3997 32.1997H59.7997" stroke="#606060" stroke-width="2.19702" stroke-linecap="round" stroke-linejoin="round"/>
<rect width="60.4179" height="60.4179" transform="translate(59.3193 39.5459)" fill="white"/>
<path d="M88.2694 59.6852C94.563 59.6852 99.5978 64.72 99.5978 71.0136C99.5978 77.3071 94.563 82.3419 88.2694 82.3419C81.9759 82.3419 76.9411 77.3071 76.9411 71.0136C76.9411 64.72 81.9759 59.6852 88.2694 59.6852ZM88.2694 62.2026C85.9326 62.2026 83.6915 63.1309 82.0391 64.7833C80.3868 66.4357 79.4585 68.6768 79.4585 71.0136C79.4585 73.3504 80.3868 75.5915 82.0391 77.2439C83.6915 78.8962 85.9326 79.8245 88.2694 79.8245C90.6062 79.8245 92.8473 78.8962 94.4997 77.2439C96.1521 75.5915 97.0804 73.3504 97.0804 71.0136C97.0804 68.6768 96.1521 66.4357 94.4997 64.7833C92.8473 63.1309 90.6062 62.2026 88.2694 62.2026ZM71.9062 52.133H76.9411L81.9759 47.0981H94.563L99.5978 52.133H104.633C106.636 52.133 108.557 52.9287 109.973 54.345C111.389 55.7613 112.185 57.6822 112.185 59.6852V82.3419C112.185 84.3449 111.389 86.2659 109.973 87.6822C108.557 89.0985 106.636 89.8942 104.633 89.8942H71.9062C69.9033 89.8942 67.9823 89.0985 66.566 87.6822C65.1497 86.2659 64.354 84.3449 64.354 82.3419V59.6852C64.354 57.6822 65.1497 55.7613 66.566 54.345C67.9823 52.9287 69.9033 52.133 71.9062 52.133ZM83.008 49.6156L77.9732 54.6504H71.9062C70.5709 54.6504 69.2903 55.1808 68.3461 56.1251C67.4019 57.0693 66.8714 58.3499 66.8714 59.6852V82.3419C66.8714 83.6773 67.4019 84.9579 68.3461 85.9021C69.2903 86.8463 70.5709 87.3768 71.9062 87.3768H104.633C105.968 87.3768 107.249 86.8463 108.193 85.9021C109.137 84.9579 109.667 83.6773 109.667 82.3419V59.6852C109.667 58.3499 109.137 57.0693 108.193 56.1251C107.249 55.1808 105.968 54.6504 104.633 54.6504H98.5656L93.5308 49.6156H83.008Z" fill="black"/>
</svg>
