<svg width="123" height="123" viewBox="0 0 123 123" fill="none" xmlns="http://www.w3.org/2000/svg">
<path d="M74.6035 73.8125C73.5184 73.8125 72.6122 73.8125 71.8944 73.9125C71.1356 74.0175 70.4505 74.25 69.9007 74.8188C69.3497 75.3887 69.1249 76.0975 69.0234 76.8812C68.9268 77.625 68.9268 78.5625 68.9268 79.685V80.9375C68.9268 81.1861 69.0222 81.4246 69.1922 81.6004C69.3621 81.7762 69.5927 81.875 69.833 81.875C70.0734 81.875 70.3039 81.7762 70.4738 81.6004C70.6438 81.4246 70.7393 81.1861 70.7393 80.9375V79.75C70.7393 78.545 70.7417 77.735 70.8202 77.1312C70.8951 76.555 71.0244 76.3075 71.1827 76.145C71.341 75.9825 71.5778 75.8487 72.1349 75.77C72.7185 75.6912 73.5015 75.6875 74.6663 75.6875H78.5934V96.3125H73.458C73.2177 96.3125 72.9871 96.4113 72.8172 96.5871C72.6472 96.7629 72.5518 97.0014 72.5518 97.25C72.5518 97.4986 72.6472 97.7371 72.8172 97.9129C72.9871 98.0887 73.2177 98.1875 73.458 98.1875H85.5413C85.7817 98.1875 86.0122 98.0887 86.1822 97.9129C86.3521 97.7371 86.4476 97.4986 86.4476 97.25C86.4476 97.0014 86.3521 96.7629 86.1822 96.5871C86.0122 96.4113 85.7817 96.3125 85.5413 96.3125H80.4059V75.6875H84.333C85.4978 75.6875 86.2808 75.69 86.8645 75.7712C87.4215 75.8487 87.6608 75.9825 87.8178 76.1463C87.9749 76.31 88.1042 76.555 88.1803 77.1312C88.2577 77.735 88.2601 78.545 88.2601 79.75V80.9375C88.2601 81.1861 88.3556 81.4246 88.5255 81.6004C88.6955 81.7762 88.926 81.875 89.1663 81.875C89.4067 81.875 89.6372 81.7762 89.8072 81.6004C89.9771 81.4246 90.0726 81.1861 90.0726 80.9375V79.685C90.0726 78.5625 90.0726 77.625 89.9759 76.8825C89.8744 76.0975 89.6497 75.3887 89.0987 74.82C88.5489 74.25 87.8638 74.0175 87.1049 73.9125C86.3872 73.8125 85.4821 73.8125 84.3958 73.8125H74.6035Z" fill="black"/>
<path d="M25.6265 41.001H97.3765M25.6265 61.501H97.3765M25.6265 82.001H56.3765" stroke="#606060" stroke-width="2.52657" stroke-linecap="round" stroke-linejoin="round"/>
</svg>
