<svg width="121" height="35" viewBox="0 0 121 35" fill="none" xmlns="http://www.w3.org/2000/svg">
<path d="M49.899 27.4569C48.5155 27.4569 47.2166 27.2028 46.0025 26.6946C44.7884 26.1722 43.7155 25.4593 42.7837 24.5558C41.866 23.6522 41.146 22.6005 40.6237 21.4005C40.1154 20.2005 39.8613 18.9158 39.8613 17.5463C39.8613 16.1769 40.1154 14.8922 40.6237 13.6922C41.146 12.4922 41.866 11.4405 42.7837 10.5369C43.7155 9.63339 44.7884 8.92751 46.0025 8.41927C47.2166 7.89692 48.5155 7.63574 49.899 7.63574C51.1837 7.63574 52.3908 7.85457 53.5202 8.29221C54.6496 8.71574 55.659 9.3228 56.5484 10.1134C56.5484 10.1134 57.4908 11.3523 57.0143 12.3052C56.379 13.5758 55.7276 13.3403 55.2672 13.417C54.6319 12.9405 54.2472 12.4781 53.2872 11.871C52.3272 11.264 51.2261 10.9605 49.9837 10.9605C48.7837 10.9605 47.6966 11.2569 46.7225 11.8499C45.7484 12.4428 44.9719 13.2334 44.3931 14.2216C43.8284 15.2099 43.546 16.3181 43.546 17.5463C43.546 18.7605 43.8284 19.8687 44.3931 20.8711C44.9719 21.8593 45.7484 22.6499 46.7225 23.2428C47.6966 23.8358 48.7837 24.1322 49.9837 24.1322C51.2119 24.1322 52.3061 23.8287 53.2661 23.2216C54.2402 22.6005 53.9966 22.7876 55.1084 21.9935C55.9025 21.9935 56.379 22.5864 56.6966 23.2641C57.0143 24.217 56.5484 24.9793 56.5484 24.9793C55.659 25.7558 54.6496 26.3628 53.5202 26.8005C52.3908 27.2381 51.1837 27.4569 49.899 27.4569Z" fill="black"/>
<path d="M63.992 27.4569C62.7355 27.4569 61.5849 27.1534 60.5402 26.5464C59.5096 25.9393 58.6908 25.1275 58.0837 24.1111C57.4766 23.0946 57.1731 21.9652 57.1731 20.7228C57.1731 19.4805 57.4766 18.3511 58.0837 17.3346C58.6908 16.3181 59.5096 15.5063 60.5402 14.8993C61.5849 14.2922 62.7284 13.9887 63.9708 13.9887C65.2414 13.9887 66.392 14.2922 67.4225 14.8993C68.4531 15.5063 69.272 16.3181 69.879 17.3346C70.5002 18.3369 70.8108 19.4663 70.8108 20.7228C70.8108 21.9511 70.5002 23.0805 69.879 24.1111C69.272 25.1275 68.4531 25.9393 67.4225 26.5464C66.392 27.1534 65.2484 27.4569 63.992 27.4569ZM63.9708 24.4499C64.6625 24.4499 65.2837 24.2805 65.8343 23.9416C66.3849 23.6028 66.8225 23.1511 67.1473 22.5864C67.472 22.0216 67.6343 21.4005 67.6343 20.7228C67.6343 20.0311 67.472 19.4099 67.1473 18.8593C66.8225 18.2946 66.3849 17.8428 65.8343 17.504C65.2837 17.1652 64.6625 16.9958 63.9708 16.9958C63.2931 16.9958 62.679 17.1652 62.1284 17.504C61.5778 17.8428 61.1402 18.2946 60.8155 18.8593C60.4908 19.4099 60.3284 20.0311 60.3284 20.7228C60.3284 21.4005 60.4908 22.0216 60.8155 22.5864C61.1402 23.1511 61.5778 23.6028 62.1284 23.9416C62.679 24.2805 63.2931 24.4499 63.9708 24.4499Z" fill="black"/>
<path d="M78.4052 27.4569C77.1487 27.4569 75.9981 27.1534 74.9534 26.5464C73.9228 25.9393 73.104 25.1275 72.497 24.1111C71.8899 23.0946 71.5864 21.9652 71.5864 20.7228C71.5864 19.4805 71.8899 18.3511 72.497 17.3346C73.104 16.3181 73.9228 15.5063 74.9534 14.8993C75.9981 14.2922 77.1417 13.9887 78.384 13.9887C79.6546 13.9887 80.8052 14.2922 81.8358 14.8993C82.8664 15.5063 83.6852 16.3181 84.2923 17.3346C84.9135 18.3369 85.224 19.4663 85.224 20.7228C85.224 21.9511 84.9135 23.0805 84.2923 24.1111C83.6852 25.1275 82.8664 25.9393 81.8358 26.5464C80.8052 27.1534 79.6617 27.4569 78.4052 27.4569ZM78.384 24.4499C79.0758 24.4499 79.697 24.2805 80.2476 23.9416C80.7982 23.6028 81.2358 23.1511 81.5605 22.5864C81.8852 22.0216 82.0476 21.4005 82.0476 20.7228C82.0476 20.0311 81.8852 19.4099 81.5605 18.8593C81.2358 18.2946 80.7982 17.8428 80.2476 17.504C79.697 17.1652 79.0758 16.9958 78.384 16.9958C77.7064 16.9958 77.0923 17.1652 76.5417 17.504C75.9911 17.8428 75.5534 18.2946 75.2287 18.8593C74.904 19.4099 74.7417 20.0311 74.7417 20.7228C74.7417 21.4005 74.904 22.0216 75.2287 22.5864C75.5534 23.1511 75.9911 23.6028 76.5417 23.9416C77.0923 24.2805 77.7064 24.4499 78.384 24.4499Z" fill="black"/>
<path d="M94.6555 27.0758L89.5732 20.4052V19.8122V19.1346L93.7026 14.3699H97.7949L93.5596 19.8122L99.0655 27.0758H94.6555ZM86.6985 27.0758L86.7249 9.60522C86.7249 9.60522 87.1485 9.12875 88.3608 9.12875C89.5732 9.12875 90.0496 9.60522 90.0496 9.60522L90.0232 27.0758H86.6985Z" fill="black"/>
<path d="M109.108 26.7582C107.361 25.6464 106.673 24.8523 106.673 22.0569C106.673 20.0876 106.673 17.0381 106.673 17.0381V14.3699L106.737 10.1346H109.934V14.3699C109.934 14.3699 111.332 11.8922 114.508 11.8922C114.508 13.4805 114.191 14.8993 113.556 15.9582C112.603 17.5464 109.998 18.3405 109.998 18.3405C109.998 18.3405 109.998 20.7229 109.998 22.0569C110.697 24.8523 112.603 23.8994 113.556 23.5817C113.873 23.5817 114.35 23.8994 114.35 25.3288C114.35 26.7582 113.556 27.0758 113.556 27.0758C113.556 27.0758 110.64 27.5777 109.108 26.7582Z" fill="black"/>
<path fill-rule="evenodd" clip-rule="evenodd" d="M99.7332 14.3699V27.0758H103.058V14.3699C103.058 14.3699 102.597 13.8934 101.406 13.8934C100.216 13.8934 99.7332 14.3699 99.7332 14.3699Z" fill="black"/>
<circle cx="118.956" cy="25.4235" r="1.90588" fill="#87DF00"/>
<circle cx="101.485" cy="9.54118" r="2.54118" fill="#87DF00"/>
<path d="M24.5661 27.8865C20.7796 31.3073 16.7177 31.2668 15.0255 30.7932C14.9796 30.7925 14.9354 30.792 14.8928 30.792L14.7032 19.2946L3.83712 19.2946C3.83712 17.4997 3.34826 11.5454 7.15402 8.61248C11.4074 5.33458 18.3374 3 24.8371 9.50004C30.8374 17 28.3371 23.9997 24.5661 27.8865Z" fill="#222C3C"/>
<path d="M14.8921 25.1276L14.7568 19.2471L9.07224 19.2471C8.86298 18.2317 9.03637 15.3815 10.8527 13.7407C13.1231 11.6896 17.1956 10.8412 20.5005 14.4995C23 18.5 22.3163 21.4511 19.8396 23.6886C17.8581 25.4786 15.7157 25.3937 14.8921 25.1276Z" fill="url(#paint0_linear_763_2009)"/>
<defs>
<linearGradient id="paint0_linear_763_2009" x1="20.2995" y1="14.2399" x2="11.906" y2="21.8226" gradientUnits="userSpaceOnUse">
<stop stop-color="#DFFBAE"/>
<stop offset="1" stop-color="#87DF00"/>
</linearGradient>
</defs>
</svg>
