<svg width="25" height="25" viewBox="0 0 25 25" fill="none" xmlns="http://www.w3.org/2000/svg">
<path d="M9.75 16.25C7.93333 16.25 6.396 15.6207 5.138 14.362C3.88 13.1033 3.25067 11.566 3.25 9.75C3.24933 7.934 3.87867 6.39667 5.138 5.138C6.39733 3.87933 7.93467 3.25 9.75 3.25C11.5653 3.25 13.103 3.87933 14.363 5.138C15.623 6.39667 16.252 7.934 16.25 9.75C16.25 10.4833 16.1333 11.175 15.9 11.825C15.6667 12.475 15.35 13.05 14.95 13.55L20.55 19.15C20.7333 19.3333 20.825 19.5667 20.825 19.85C20.825 20.1333 20.7333 20.3667 20.55 20.55C20.3667 20.7333 20.1333 20.825 19.85 20.825C19.5667 20.825 19.3333 20.7333 19.15 20.55L13.55 14.95C13.05 15.35 12.475 15.6667 11.825 15.9C11.175 16.1333 10.4833 16.25 9.75 16.25ZM9.75 14.25C11 14.25 12.0627 13.8127 12.938 12.938C13.8133 12.0633 14.2507 11.0007 14.25 9.75C14.2493 8.49933 13.812 7.437 12.938 6.563C12.064 5.689 11.0013 5.25133 9.75 5.25C8.49867 5.24867 7.43633 5.68633 6.563 6.563C5.68967 7.43967 5.252 8.502 5.25 9.75C5.248 10.998 5.68567 12.0607 6.563 12.938C7.44033 13.8153 8.50267 14.2527 9.75 14.25Z" fill="black"/>
</svg>
